<svg width="282" height="120" viewBox="0 0 282 120" fill="none" xmlns="http://www.w3.org/2000/svg">
<g clip-path="url(#clip0_4_14)">
<path d="M0 2.63078L11.3235 0.375488V118.684H0V2.63078Z" fill="#a1a1a6"/>
<path d="M185.12 38.4802C204.572 38.4802 215.896 46.7966 221.91 51.4951V118.684H210.774V100.548C205.136 114.502 191.886 120 181.315 120C157.54 120 145.089 102.427 145.089 79.4514C145.089 56.6165 159.466 38.4802 185.12 38.4802ZM182.489 109.804C194.752 109.804 210.774 100.36 210.774 73.2023V56.6165C205.7 52.4818 197.571 48.676 185.496 48.676C166.608 48.676 156.647 62.4427 156.647 79.8273C156.6 96.9769 164.917 109.804 182.489 109.804Z" fill="#a1a1a6"/>
<path d="M269.649 9.81992C260.017 9.81992 256.446 15.881 256.446 27.3924V39.6556H276.273V49.2875H256.446V118.732H245.122V49.2406H234.457L237.088 39.6086H244.934V27.3454C244.934 8.45735 253.814 0 268.333 0C273.407 0 276.461 0.563823 281.912 1.50353L280.22 10.9476C275.663 10.0079 272.092 9.81992 269.649 9.81992Z" fill="#a1a1a6"/>
<path d="M64.3228 120C41.6289 119.906 23.7275 105.294 23.7275 79.2168C23.7275 52.858 41.488 37.8227 63.9939 37.8227C67.4238 37.8227 85.889 37.7288 85.889 37.7288V45.5283C85.889 66.0609 69.2093 82.7406 48.6767 82.7406H42.6156L45.1528 73.8134H48.6767C63.3831 73.8134 75.5053 62.537 76.8209 48.1595L63.712 48.1125C47.69 48.5354 35.2859 59.5299 35.2859 79.2168C35.2859 98.9975 48.0189 109.804 64.3228 109.945V120Z" fill="#a1a1a6"/>
<path d="M92.8885 37.6819C115.582 37.7759 133.484 52.3883 133.484 78.4651C133.484 104.824 115.723 119.859 93.2174 119.859C89.7875 119.859 71.3223 119.953 71.3223 119.953V112.154C71.3223 91.621 88.002 74.9412 108.535 74.9412H114.596L112.058 83.8684H108.535C93.8282 83.8684 81.706 95.1449 80.3904 109.522L93.4993 109.569C109.521 109.146 121.925 98.1519 121.925 78.4651C121.925 58.6843 109.192 47.8777 92.8885 47.7367V37.6819Z" fill="#a1a1a6"/>
</g>
<defs>
<clipPath id="clip0_4_14">
<rect width="282" height="120" fill="none"/>
</clipPath>
</defs>
</svg>
